<svg xmlns="http://www.w3.org/2000/svg" version="1.1" viewBox="0 0 800 450">
<g stroke="#404040" stroke-width="4" stroke-miterlimit="10">
<path d="m264.5 184c0 22.6-18.4 41-41 41m41-41c0-22.6 18.4-41 41-41h160.4" class="st14" fill="none"/>
<circle cx="348.89999" cy="143" r="21" class="st7" fill="#f60"/>
<circle cx="444.89999" cy="143" r="21" class="st7" fill="#f60"/>
<path d="m545.2 266c0-22.6-18.4-41-41-41m41 41c0 22.6 18.4 41 41 41h160.4" class="st14" fill="none"/>
<circle cx="629.5" cy="307" r="21" class="st15" fill="#4ed1a1"/>
<circle cx="725.5" cy="307" r="21" class="st15" fill="#4ed1a1"/>
</g>
<g stroke="#404040" stroke-width="4" stroke-miterlimit="10" fill="#b3e3ff">
<path d="m53.5 225h555" class="st6"/>
<circle cx="74.5" cy="225" r="21" class="st6"/>
<circle cx="170.5" cy="225" r="21" class="st6"/>
<circle cx="347.89999" cy="225" r="21" class="st6"/>
<circle cx="444.89999" cy="225" r="21" class="st6"/>
<circle cx="629.5" cy="225" r="21" class="st6"/>
</g>
<g font-size="24px" font-family="sans-serif" font-weight="400" fill="#404040">
<text style="word-spacing:0px;letter-spacing:0px" xml:space="preserve" line-height="125%" y="120.96562" x="257.67712"><tspan x="257.67712" y="120.96562">v1.0</tspan></text>
<text style="word-spacing:0px;letter-spacing:0px" xml:space="preserve" line-height="125%" y="345.94321" x="537.8894"><tspan x="537.8894" y="345.94321">v2.0</tspan></text>
<text style="word-spacing:0px;letter-spacing:0px" xml:space="preserve" line-height="125%" y="203.27354" x="518.44189"><tspan x="518.44189" y="203.27354">latest</tspan></text>
</g>
</svg>
