<?xml version="1.0" encoding="UTF-8"?>
<svg xmlns="http://www.w3.org/2000/svg" viewBox="0 0 298.31815 240.80141" version="1.1">
  <g transform="translate(-150,-369.09399)">
    <g style="fill:#aea483;fill-opacity:1;stroke-linejoin:miter">
      <path
         d="m 363.32904,369.09467 q -14.12271,3.28781 -18.8725,14.59039 -3.84649,9.52679 4.85036,20.02698 l -33.04622,108.43616 -6.83893,3.8423 q -2.10302,18.83396 -0.43597,18.9359 0.96509,1.6397 8.40167,-13.2676 l 10.6673,1.15047 5.52997,8.8421 -6.80682,13.01393 10.87402,-5.40804 q 6.18568,-6.16356 7.61538,-10.2171 1.3648,-3.29556 0.3633,-7.90136 -0.39473,-1.87324 -1.37566,-4.49683 l -3.3833,-8.03737 26.93336,-96.29518 q 7.97646,-3.23802 10.4046,-6.37528 3.0304,-3.3388 4.5684,-10.94009 0.862,-4.00797 1.82936,-12.33127 -5.84894,9.10802 -11.40289,11.02966 -8.72742,3.13216 -11.95395,-1.60089 -3.16092,-4.54651 -2.9126,-8.46203 0.0834,-2.12824 2.40643,-6.45194 l 5.37708,-7.40728 q -1.61403,-0.71006 -2.68091,-0.67463" />
    </g>
    <g style="fill:#ffc799;fill-opacity:1;stroke-linejoin:miter">
      <path
         d="m 358.97815,446.72638 -19.05105,-4.91071 -22.98032,8.16959 -31.49781,25.39682 -6.18515,3.04682 2.39451,39.9218 q 4.39459,-1.4368 16.13909,-2.9421 l 8.98258,-0.2971 q 8.2172,0.7947 14.29892,1.2663 13.78161,-4.1454 21.26904,-6.03494 7.58698,-3.72799 11.88837,-6.18453 l 1.59729,-2.65119 q -0.73372,-1.95599 -0.60199,-4.89191 l 1.78839,0.0575 3.53934,-1.45256 2.43527,-3.1424 0.11719,-4.63285 -1.49356,-4.10797 3.15066,-0.61128 2.5824,-1.35552 1.03858,-5.46538 -0.9891,-3.95222 -4.20048,-6.09888 4.70941,-0.521 2.33325,-4.2102 1.0083,-6.9771 -12.19978,-7.3749" />
    </g>
    <g style="fill:#000000;fill-opacity:1;stroke-linejoin:miter">
      <path
         d="m 153.41753,404.8047 74.05366,205.0907 199.25476,-2.464 19.14185,-7.3751 2.45035,-8.2376 -50.17569,-24.8402 -141.69141,0.5537 -5.76633,3.7513 -44.91492,-125.9698 -51.97363,-40.2161" />
    </g>
    <g style="fill:#000000;fill-opacity:1;stroke-linejoin:miter">
      <path
         d="m 153.51569,404.84024 -3.05797,2.15086 -0.45772,9.1681 69.78708,181.4886 7.60316,7.48056 -73.84652,-200.21216" />
    </g>
    <g style="fill:#5b5454;fill-opacity:1;stroke-linejoin:miter">
      <path
         d="M 244.94757,561.89246 204.3192,454.73676 167.69865,427.69302 222.30194,576.7601 244.87111,561.9426" />
    </g>
    <g style="fill:#a1dde6;fill-opacity:1;stroke-linejoin:miter">
      <path
         d="m 281.8412,475.39227 -79.4051,12.7428 q -0.503,0.0192 -0.30735,0.17236 l 21.98427,58.85167 0.13449,-0.0202 q 3.39507,-1.4342 8.12599,-2.6951 0.10111,-0.2166 24.52503,-5.68355 6.4714,-1.64929 11.62161,-3.55465 12.23371,-4.5181 17.31286,-10.8782 5.24372,-6.5386 4.27692,-17.76267 -0.5625,-9.64223 -8.25839,-31.14237" />
    </g>
    <g style="fill:#070600;fill-opacity:0.0627451;stroke-linejoin:miter">
      <path
         d="m 338.9542,437.68286 -1.53074,5.02286 -20.47668,7.27954 -31.49781,25.39682 -3.07337,1.51398 -2e-5,0 q -0.25778,-0.72976 -0.52405,-1.4737 l -0.0103,-0.0301 -61.81007,9.91916 -0.50573,-1.41836 -0.4696,-1.31707 -17.34947,5.4798 7.91046,20.54503 158.59543,-31.76111 0.17768,-0.93492 -0.9891,-3.95222 -4.20048,-6.09888 4.70941,-0.521 2.33325,-4.2102 1.0083,-6.9771 -12.19978,-7.3749 -0.0733,-0.0441 -0.74567,-0.1922 0.54486,-1.94794 0.002,0 q -8.57471,-3.24404 -19.82331,-6.90338 z" />
    </g>
    <g style="fill:#070600;fill-opacity:0.09019608;stroke-linejoin:miter">
      <path
         d="m 363.5432,369.094 q -0.0519,0 -0.10268,0.002 l -0.11148,-10e-4 q -14.12271,3.28781 -18.8725,14.59039 -3.84649,9.52679 4.85036,20.02698 l -10.3527,33.97082 -1.41117,4.63044 13.55865,0.5944 4.95639,-16.5983 8.08338,-31.8835 0.002,0 q -1.77612,-0.69592 -2.89303,-2.33435 -3.16092,-4.54651 -2.9126,-8.46203 0.0834,-2.12824 2.40643,-6.45194 l 5.37708,-7.40728 q -1.53733,-0.6763 -2.57823,-0.6763 z" />
    </g>
    <g style="fill:#070600;fill-opacity:0.14117647;stroke-linejoin:miter">
      <path
         d="m 333.21594,512.28876 -10.18434,4.10199 q -10.79033,-1.45945 -14.4597,-1.47975 -0.40607,-0.01 -0.787,-0.01 -2.04552,0 -3.36486,0.2886 l 2.35996,-0.0781 q 1.8538,0.1793 3.59885,0.3421 l -0.002,0 -0.95557,0.5369 q -2.10302,18.83396 -0.43597,18.9359 0.0956,0.16247 0.25482,0.16247 1.44717,0 8.14685,-13.43007 l 10.6673,1.15047 1.63675,2.61706 q 1.88687,-5.05633 3.51315,-13.08273 l 0.0113,-0.0548 z" />
    </g>
    <g style="fill:#353325;fill-opacity:1;stroke-linejoin:miter">
      <path
         d="m 395.23834,571.2516 -134.55581,0.3679 -16.23975,22.83106 181.44354,-3.35096 -30.59422,-19.81335" />
    </g>
  </g>
</svg>
