<svg width="217.66mm" height="86.417mm" version="1.1" viewBox="0 0 217.66071 86.416771" xmlns="http://www.w3.org/2000/svg" xmlns:cc="http://creativecommons.org/ns#" xmlns:dc="http://purl.org/dc/elements/1.1/" xmlns:rdf="http://www.w3.org/1999/02/22-rdf-syntax-ns#">
 <metadata>
  <rdf:RDF>
   <cc:Work rdf:about="">
    <dc:format>image/svg+xml</dc:format>
    <dc:type rdf:resource="http://purl.org/dc/dcmitype/StillImage"/>
    <dc:title/>
   </cc:Work>
  </rdf:RDF>
 </metadata>
 <g transform="translate(-5.3186e-8 -210.58)">
  <g transform="matrix(.26458 0 0 .26458 -83.73 310.62)">
   <g stroke="#000" stroke-miterlimit="10" stroke-width="4">
    <path class="st6" d="m627.87-215.76 99.572 96.588h201.61" fill="none"/>
    <g fill="#0ff">
     <circle class="st6" transform="scale(1,-1)" cx="726.86" cy="119.17" r="21"/>
     <circle class="st6" transform="scale(1,-1)" cx="826.86" cy="119.17" r="21"/>
     <circle class="st6" transform="scale(1,-1)" cx="927.97" cy="119.17" r="21"/>
    </g>
   </g>
   <g image-rendering="auto" stroke="#000" stroke-miterlimit="10" stroke-width="4">
    <path class="st6" d="m429.02-215.76 97.572-94.357h199.61" fill="none"/>
    <circle class="st6" cx="526.86" cy="-310.11" r="21" fill="#ff80e5"/>
    <circle class="st6" cx="726.86" cy="-310.11" r="21" fill="#ff80e5"/>
   </g>
   <g id="master" stroke="#000" stroke-miterlimit="10" stroke-width="4">
    <path class="st6" d="m339.26-215.76h689.62" fill="#fff"/>
    <g fill="#0f0">
     <circle class="st6" cx="427.46" cy="-215.76" r="21"/>
     <circle class="st6" cx="526.86" cy="-215.76" r="21"/>
     <circle class="st6" cx="626.86" cy="-215.76" r="21"/>
     <circle class="st6" cx="726.86" cy="-215.76" r="21"/>
     <circle class="st6" cx="826.86" cy="-215.76" r="21"/>
     <circle class="st6" cx="1026.9" cy="-215.76" r="21"/>
     <circle class="st6" cx="339.46" cy="-215.76" r="21"/>
    </g>
   </g>
   <g fill="#000000" font-family="sans-serif" font-size="42.667px" letter-spacing="0px" word-spacing="0px">
    <text x="513.03125" y="-346.4375" style="font-feature-settings:normal;font-variant-caps:normal;font-variant-ligatures:normal;font-variant-numeric:normal;line-height:1.25" xml:space="preserve"><tspan x="513.03125" y="-346.4375">v1.0</tspan></text>
    <text x="714.15625" y="-52.09375" style="font-feature-settings:normal;font-variant-caps:normal;font-variant-ligatures:normal;font-variant-numeric:normal;line-height:1.25" xml:space="preserve"><tspan x="714.15625" y="-52.09375">v2.0</tspan></text>
    <text x="1020.1562" y="-249.125" style="font-feature-settings:normal;font-variant-caps:normal;font-variant-ligatures:normal;font-variant-numeric:normal;line-height:1.25" xml:space="preserve"><tspan x="1020.1562" y="-249.125">latest</tspan></text>
   </g>
  </g>
 </g>
</svg>
