<svg xmlns="http://www.w3.org/2000/svg" version="1.1" viewBox="0 0 248.45641 82.689586">
<g transform="translate(10.001015,-212.48576)">
<g transform="matrix(.26458 0 0 .26458 -83.73 310.62)">
<g stroke-width="4" stroke-miterlimit="10" stroke="#000">
<path fill="none" d="m627.87-215.76 99.572 96.588h201.61" class="st6"/>
<g fill="#2196f3">
<circle transform="scale(1,-1)" class="st6" cy="119.17" cx="726.85999" r="21"/>
<circle transform="scale(1,-1)" class="st6" cy="119.17" cx="826.85999" r="21"/>
<circle transform="scale(1,-1)" class="st6" cy="119.17" cx="927.96997" r="21"/>
</g>
<g fill="#ff5722">
<path fill="none" d="m429.02-215.76 97.572-94.357h199.61" class="st6"/>
<circle cy="-310.10999" cx="526.85999" r="21" class="st6"/>
<circle cy="-310.10999" cx="726.85999" r="21" class="st6"/>
</g>
<path d="m339.26-215.76h689.62" class="st6"/>
<g fill="#b0bec5">
<circle cy="-215.75999" cx="427.45999" r="21" class="st6"/>
<circle cy="-215.75999" cx="526.85999" r="21" class="st6"/>
<circle cy="-215.75999" cx="626.85999" r="21" class="st6"/>
<circle cy="-215.75999" cx="726.85999" r="21" class="st6"/>
<circle cy="-215.75999" cx="826.85999" r="21" class="st6"/>
<circle cy="-215.75999" cx="1026.9" r="21" class="st6"/>
<circle cy="-215.75999" cx="339.45999" r="21" class="st6"/>
</g>
</g>
<g font-size="42.66699982px" style="word-spacing:0px;letter-spacing:0px" letter-spacing="0px" word-spacing="0px" font-family="sans-serif">
<text style="text-anchor:end;text-align:end" xml:space="preserve" y="-296.15805" x="580.76471" line-height="1.25"><tspan y="-296.15805" x="491.72263" style="text-anchor:end;text-align:end">v1.0</tspan></text>
<text style="text-anchor:end;text-align:end" xml:space="preserve" y="-105.17196" x="780.76501" line-height="1.25"><tspan y="-105.17196" x="691.72266" style="text-anchor:end;text-align:end">v2.0</tspan></text>
<text xml:space="preserve" y="-202.41899" x="1060.9689" line-height="1.25"><tspan y="-202.41899" x="1060.9689">latest</tspan></text>
</g>
</g>
</g>
</svg>
