<svg version="1.1" viewBox="0 0 1076.4735 1235.7911" xmlns="http://www.w3.org/2000/svg">
  <title>Antora Clone-Aggregate-Classify</title>
  <g class="build" transform="translate(6.6304 888.79)">
    <text x="548.23462" y="-827.27075" fill="#000000" font-family="sans-serif" font-size="3.3867px" font-weight="bold" letter-spacing="0px" stroke-width=".28222px" text-align="center" text-anchor="middle" word-spacing="0px" style="line-height:0%" xml:space="preserve"><tspan x="548.23462" y="-827.27075" font-family="sans-serif" font-size="15.522px" font-weight="bold" stroke-width=".28222px" text-align="center" text-anchor="middle" style="line-height:125%">Source 3</tspan></text>
    <g transform="matrix(.28582 0 0 .28582 511.55 -804.08)">
      <path d="m128 0c-70.684 0-128 57.307-128 128 0 56.554 36.676 104.53 87.535 121.46 6.3971 1.1849 8.7457-2.7767 8.7457-6.1576 0-3.0523-0.1187-13.135-0.17381-23.831-35.61 7.743-43.124-15.102-43.124-15.102-5.8227-14.795-14.212-18.729-14.212-18.729-11.614-7.9444 0.87541-7.7812 0.87541-7.7812 12.854 0.90297 19.622 13.191 19.622 13.191 11.416 19.569 29.944 13.911 37.249 10.641 1.1488-8.273 4.4661-13.92 8.1267-17.116-28.431-3.2367-58.318-14.212-58.318-63.259 0-13.975 5.0002-25.393 13.188-34.357-1.329-3.224-5.7103-16.243 1.24-33.874 0 0 10.749-3.4402 35.209 13.121 10.21-2.8361 21.16-4.2584 32.038-4.3071 10.878 0.04875 21.837 1.471 32.066 4.3071 24.431-16.561 35.165-13.121 35.165-13.121 6.9673 17.631 2.5838 30.65 1.2548 33.874 8.2073 8.964 13.174 20.382 13.174 34.357 0 49.163-29.944 59.988-58.447 63.157 4.5912 3.9722 8.6821 11.762 8.6821 23.704 0 17.127-0.14837 30.911-0.14837 35.127 0 3.4063 2.304 7.3976 8.7923 6.1406 50.831-16.944 87.461-64.908 87.461-121.44 0-70.694-57.309-128-128-128zm-80.061 182.34c-0.28191 0.63589-1.2824 0.82666-2.1938 0.39002-0.9284-0.41757-1.4498-1.2845-1.1488-1.9225 0.27555-0.65497 1.2781-0.83726 2.2044-0.39849 0.93052 0.41757 1.4604 1.293 1.1382 1.931zm6.2962 5.618c-0.61046 0.56595-1.8038 0.30311-2.6135-0.59138-0.83726-0.89237-0.99411-2.0857-0.37518-2.6602 0.62953-0.56595 1.7869-0.30099 2.6262 0.59138 0.83726 0.90297 1.0005 2.0878 0.36246 2.6602zm4.3195 7.1881c-0.78427 0.54475-2.0667 0.0339-2.8594-1.1043-0.78427-1.1382-0.78427-2.5033 0.01696-3.0502 0.79487-0.54686 2.0582-0.0551 2.8615 1.0747 0.78215 1.1573 0.78215 2.5224-0.01908 3.0798zm7.3051 8.3248c-0.7016 0.77368-2.196 0.56595-3.2897-0.48963-1.1192-1.0323-1.4308-2.4969-0.72704-3.2706 0.71008-0.77579 2.2129-0.55747 3.3151 0.48963 1.1107 1.0302 1.4498 2.5054 0.7016 3.2706zm9.4412 2.8104c-0.30947 1.0026-1.7487 1.4583-3.1985 1.0323-1.4477-0.43877-2.3952-1.613-2.1027-2.6262 0.30099-1.009 1.7466-1.4838 3.207-1.028 1.4456 0.43665 2.3952 1.6024 2.0942 2.622zm10.744 1.1921c0.03603 1.0556-1.1934 1.931-2.7153 1.9501-1.5304 0.0339-2.7683-0.8203-2.7852-1.8589 0-1.0662 1.2018-1.9331 2.7322-1.9586 1.5219-0.0297 2.7683 0.81818 2.7683 1.8674zm10.555-0.40461c0.18229 1.0302-0.87541 2.0878-2.3867 2.3698-1.4859 0.27132-2.8615-0.36457-3.0502-1.3862-0.18441-1.0556 0.89237-2.1133 2.3761-2.3867 1.5134-0.26284 2.8679 0.3561 3.0608 1.4032z" fill="#161614"/>
    </g>
    <text x="1011.4075" y="-827.27075" fill="#000000" font-family="sans-serif" font-size="3.3867px" font-weight="bold" letter-spacing="0px" stroke-width=".28222px" text-align="center" text-anchor="middle" word-spacing="0px" style="line-height:0%" xml:space="preserve"><tspan x="1011.4075" y="-827.27075" font-family="sans-serif" font-size="15.522px" font-weight="bold" stroke-width=".28222px" text-align="center" text-anchor="middle" style="line-height:125%">Source 5</tspan></text>
    <path d="m1043.5-743.66 6.4067-33.085c0.7965-1.7623-0.065-4.4479-2.3337-5.2931h-3.9214v-3.3201c0-4.4399-3.6122-8.052-8.0521-8.052h-29.719l-8.4458-7.6673h-16.728c-4.4393 0-8.0512 3.6119-8.0512 8.052v49.02c0 4.4401 3.6119 8.052 8.0504 8.052l50.739 3e-3 4.1541-3e-3c0.047 0 0.091-0.0127 0.1363-0.0147 4.1989-0.1412 7.5844-3.5047 7.7642-7.6937zm-65.737-0.34468v-49.02c0-1.6237 1.3208-2.9456 2.9447-2.9456h14.755l8.4458 7.6675h31.691c1.6239 0 2.9455 1.3216 2.9455 2.9454v3.3209l-41.397 0.17509c-3.4877-0.49039-6.103 0.85392-6.4561 4.4304l-7.6858 36.371h-2.2987c-1.6239 3e-3 -2.9447-1.3208-2.9447-2.9448zm57.703 2.9456h-47.257l7.5003-35.87h49.506l-6.7488 32.4c-0.023 0.11329-0.028 0.2316-0.037 0.35075-0.01 0.056-0.017 0.11475-0.017 0.171v3e-3c0 1.624-1.3225 2.9456-2.9461 2.9456z" stroke-width=".20979"/>
    <text x="779.8371" y="-827.27075" fill="#000000" font-family="sans-serif" font-size="3.3867px" font-weight="bold" letter-spacing="0px" stroke-width=".28222px" text-align="center" text-anchor="middle" word-spacing="0px" style="line-height:0%" xml:space="preserve"><tspan x="779.8371" y="-827.27075" font-family="sans-serif" font-size="15.522px" font-weight="bold" stroke-width=".28222px" text-align="center" text-anchor="middle" style="line-height:125%">Source 4</tspan></text>
    <g transform="matrix(.28582 0 0 .28582 743.33 -804.08)">
      <path d="m128 0c-70.684 0-128 57.307-128 128 0 56.554 36.676 104.53 87.535 121.46 6.3971 1.1849 8.7457-2.7767 8.7457-6.1576 0-3.0523-0.1187-13.135-0.17381-23.831-35.61 7.743-43.124-15.102-43.124-15.102-5.8227-14.795-14.212-18.729-14.212-18.729-11.614-7.9444 0.87541-7.7812 0.87541-7.7812 12.854 0.90297 19.622 13.191 19.622 13.191 11.416 19.569 29.944 13.911 37.249 10.641 1.1488-8.273 4.4661-13.92 8.1267-17.116-28.431-3.2367-58.318-14.212-58.318-63.259 0-13.975 5.0002-25.393 13.188-34.357-1.329-3.224-5.7103-16.243 1.24-33.874 0 0 10.749-3.4402 35.209 13.121 10.21-2.8361 21.16-4.2584 32.038-4.3071 10.878 0.04875 21.837 1.471 32.066 4.3071 24.431-16.561 35.165-13.121 35.165-13.121 6.9673 17.631 2.5838 30.65 1.2548 33.874 8.2073 8.964 13.174 20.382 13.174 34.357 0 49.163-29.944 59.988-58.447 63.157 4.5912 3.9722 8.6821 11.762 8.6821 23.704 0 17.127-0.14837 30.911-0.14837 35.127 0 3.4063 2.304 7.3976 8.7923 6.1406 50.831-16.944 87.461-64.908 87.461-121.44 0-70.694-57.309-128-128-128zm-80.061 182.34c-0.28191 0.63589-1.2824 0.82666-2.1938 0.39002-0.9284-0.41757-1.4498-1.2845-1.1488-1.9225 0.27555-0.65497 1.2781-0.83726 2.2044-0.39849 0.93052 0.41757 1.4604 1.293 1.1382 1.931zm6.2962 5.618c-0.61046 0.56595-1.8038 0.30311-2.6135-0.59138-0.83726-0.89237-0.99411-2.0857-0.37518-2.6602 0.62953-0.56595 1.7869-0.30099 2.6262 0.59138 0.83726 0.90297 1.0005 2.0878 0.36246 2.6602zm4.3195 7.1881c-0.78427 0.54475-2.0667 0.0339-2.8594-1.1043-0.78427-1.1382-0.78427-2.5033 0.01696-3.0502 0.79487-0.54686 2.0582-0.0551 2.8615 1.0747 0.78215 1.1573 0.78215 2.5224-0.01908 3.0798zm7.3051 8.3248c-0.7016 0.77368-2.196 0.56595-3.2897-0.48963-1.1192-1.0323-1.4308-2.4969-0.72704-3.2706 0.71008-0.77579 2.2129-0.55747 3.3151 0.48963 1.1107 1.0302 1.4498 2.5054 0.7016 3.2706zm9.4412 2.8104c-0.30947 1.0026-1.7487 1.4583-3.1985 1.0323-1.4477-0.43877-2.3952-1.613-2.1027-2.6262 0.30099-1.009 1.7466-1.4838 3.207-1.028 1.4456 0.43665 2.3952 1.6024 2.0942 2.622zm10.744 1.1921c0.03603 1.0556-1.1934 1.931-2.7153 1.9501-1.5304 0.0339-2.7683-0.8203-2.7852-1.8589 0-1.0662 1.2018-1.9331 2.7322-1.9586 1.5219-0.0297 2.7683 0.81818 2.7683 1.8674zm10.555-0.40461c0.18229 1.0302-0.87541 2.0878-2.3867 2.3698-1.4859 0.27132-2.8615-0.36457-3.0502-1.3862-0.18441-1.0556 0.89237-2.1133 2.3761-2.3867 1.5134-0.26284 2.8679 0.3561 3.0608 1.4032z" fill="#161614"/>
    </g>
    <text x="334.83337" y="-827.27075" fill="#000000" font-family="sans-serif" font-size="3.3867px" font-weight="bold" letter-spacing="0px" stroke-width=".28222px" text-align="center" text-anchor="middle" word-spacing="0px" style="line-height:0%" xml:space="preserve"><tspan x="334.83337" y="-827.27075" font-family="sans-serif" font-size="15.522px" font-weight="bold" stroke-width=".28222px" text-align="center" text-anchor="middle" style="line-height:125%">Source 2</tspan></text>
    <g transform="matrix(.28222 0 0 .28222 -865.77 -935.9)">
      <g transform="matrix(.55555 0 0 .55555 4114.8 455.51)" fill="none" fill-rule="evenodd">
        <g transform="translate(2,19)">
          <g transform="matrix(1 0 0 -1 0 457.33)">
            <g transform="translate(.66666 .66666)">
              <g transform="translate(.532 .77493)" fill="#fc6d26">
                <path d="m492 194.67-27.559 84.815-54.617 168.1c-2.8093 8.648-15.045 8.648-17.856 0l-54.619-168.1h-181.37l-54.62 168.1c-2.8093 8.648-15.045 8.648-17.856 0l-54.617-168.1-27.557-84.815c-2.5147-7.736 0.24-16.211 6.82-20.992l238.51-173.29 238.51 173.29c6.58 4.7813 9.3333 13.256 6.82 20.992"/>
              </g>
              <g transform="translate(156.2 1.1603)" fill="#e24329">
                <path d="m91 0l90.684 279.1h-181.37z"/>
              </g>
              <g transform="translate(28.531 1.1608)" fill="#fc6d26">
                <path d="m218.67 0-90.684 279.09h-127.09z"/>
              </g>
              <g transform="translate(.088533 .25587)" fill="#fca326">
                <path d="m29.333 280l-27.559-84.815c-2.5133-7.736 0.24-16.211 6.8213-20.991l238.51-173.29z"/>
              </g>
              <g transform="translate(29.422 280.26)" fill="#e24329">
                <path d="m0 0h127.09l-54.619 168.1c-2.8107 8.6493-15.047 8.6493-17.856 0z"/>
              </g>
              <g transform="translate(247.2 1.1608)" fill="#fc6d26">
                <path d="m0 0 90.684 279.09h127.09z"/>
              </g>
              <g transform="translate(246.31 .25587)" fill="#fca326">
                <path d="m218.67 280l27.559-84.815c2.5133-7.736-0.24-16.211-6.8213-20.991l-238.51-173.29z"/>
              </g>
              <g transform="translate(336.97 280.26)" fill="#e24329">
                <path d="m128 0h-127.09l54.619 168.1c2.8107 8.6493 15.047 8.6493 17.856 0z"/>
              </g>
            </g>
          </g>
        </g>
      </g>
    </g>
    <g>
      <text x="103.1557" y="-827.27075" fill="#000000" font-family="sans-serif" font-size="3.3867px" font-weight="bold" letter-spacing="0px" stroke-width=".28222px" text-align="center" text-anchor="middle" word-spacing="0px" style="line-height:0%" xml:space="preserve"><tspan x="103.1557" y="-827.27075" font-family="sans-serif" font-size="15.522px" font-weight="bold" stroke-width=".28222px" text-align="center" text-anchor="middle" style="line-height:125%">Source 1</tspan></text>
      <g transform="matrix(.15679 0 0 .15679 64.279 -807.35)" fill="none" fill-rule="evenodd">
        <g transform="translate(2,19)">
          <g transform="matrix(1 0 0 -1 0 457.33)">
            <g transform="translate(.66666 .66666)">
              <g transform="translate(.532 .77493)" fill="#fc6d26">
                <path d="m492 194.67-27.559 84.815-54.617 168.1c-2.8093 8.648-15.045 8.648-17.856 0l-54.619-168.1h-181.37l-54.62 168.1c-2.8093 8.648-15.045 8.648-17.856 0l-54.617-168.1-27.557-84.815c-2.5147-7.736 0.24-16.211 6.82-20.992l238.51-173.29 238.51 173.29c6.58 4.7813 9.3333 13.256 6.82 20.992"/>
              </g>
              <g transform="translate(156.2 1.1603)" fill="#e24329">
                <path d="m91 0l90.684 279.1h-181.37z"/>
              </g>
              <g transform="translate(28.531 1.1608)" fill="#fc6d26">
                <path d="m218.67 0-90.684 279.09h-127.09z"/>
              </g>
              <g transform="translate(.088533 .25587)" fill="#fca326">
                <path d="m29.333 280l-27.559-84.815c-2.5133-7.736 0.24-16.211 6.8213-20.991l238.51-173.29z"/>
              </g>
              <g transform="translate(29.422 280.26)" fill="#e24329">
                <path d="m0 0h127.09l-54.619 168.1c-2.8107 8.6493-15.047 8.6493-17.856 0z"/>
              </g>
              <g transform="translate(247.2 1.1608)" fill="#fc6d26">
                <path d="m0 0 90.684 279.09h127.09z"/>
              </g>
              <g transform="translate(246.31 .25587)" fill="#fca326">
                <path d="m218.67 280l27.559-84.815c2.5133-7.736-0.24-16.211-6.8213-20.991l-238.51-173.29z"/>
              </g>
              <g transform="translate(336.97 280.26)" fill="#e24329">
                <path d="m128 0h-127.09l54.619 168.1c2.8107 8.6493 15.047 8.6493 17.856 0z"/>
              </g>
            </g>
          </g>
        </g>
      </g>
    </g>
  </g>
  <g class="build" transform="translate(6.6304 888.79)">
    <g transform="matrix(.64832 0 0 .64832 409.28 -1202.9)">
      <path d="m43.844 955.36c-1.3085-5e-3 -2.5444 1.1011-2.875 2.1562l-2.625 9.1875c-1.8443 0.60599-3.6132 1.3198-5.3125 2.1875l-8.3438-4.625c-1.1328-0.63531-2.6774-0.42042-3.5938 0.5l-8.6562 8.6875c-0.90648 0.91206-1.1204 2.4361-0.5 3.5625l4.625 8.375c-0.85904 1.6842-1.5854 3.4548-2.1875 5.2812l-9.1875 2.625c-1.254 0.3529-2.1954 1.6037-2.1875 2.9063v12.313c6e-3 1.2922 0.94359 2.5249 2.1875 2.875l9.1562 2.5937c0.60386 1.8403 1.3542 3.6164 2.2188 5.3125l-4.625 8.375c-0.62038 1.1264-0.40648 2.6505 0.5 3.5625l8.6562 8.6875c0.91639 0.9204 2.4609 1.1353 3.5938 0.5l8.3438-4.625c1.7005 0.8683 3.4669 1.6126 5.3125 2.2188l2.625 9.1562c0.35006 1.2439 1.5828 2.1819 2.875 2.1875h12.312c1.2922-0.01 2.5249-0.9436 2.875-2.1875l2.625-9.1562c1.8456-0.6062 3.612-1.3505 5.3125-2.2188l8.3438 4.625c1.1328 0.6353 2.6774 0.4204 3.5938-0.5l8.6562-8.6875c0.90648-0.912 1.1204-2.4361 0.5-3.5625l-4.625-8.375c0.86452-1.6961 1.6149-3.4722 2.2188-5.3125l9.1562-2.5937c1.2439-0.3501 2.1818-1.5828 2.1875-2.875v-12.313c8e-3 -1.3026-0.93355-2.5534-2.1875-2.9063l-9.1875-2.625c-0.60214-1.8264-1.3285-3.597-2.1875-5.2812l4.625-8.375c0.62038-1.1264 0.40648-2.6504-0.5-3.5625l-8.6562-8.6875c-0.91639-0.92042-2.4609-1.1353-3.5938-0.5l-8.3438 4.625c-1.6993-0.86775-3.4682-1.5815-5.3125-2.1875l-2.625-9.1875c-0.36132-1.2325-1.5906-2.1545-2.875-2.1562zm2.25 6h7.8125l2.4062 8.4688c0.27467 0.995 1.0988 1.8191 2.0938 2.0938 2.527 0.69618 4.9093 1.6903 7.1562 2.9688 0.88689 0.51041 2.04 0.5227 2.9375 0.0312l7.75-4.3125 5.5 5.5-4.3125 7.7187c-0.5009 0.8923-0.5009 2.0453 0 2.9375 1.2784 2.247 2.3038 4.6605 3 7.1875 0.26916 0.9878 1.0789 1.8098 2.0625 2.0938l8.5 2.4062v7.7813l-8.5 2.4375c-0.97639 0.2784-1.7841 1.0861-2.0625 2.0625-0.69618 2.527-1.7216 4.9405-3 7.1875-0.5009 0.8922-0.5009 2.0452 0 2.9375l4.3125 7.75-5.5 5.4687-7.75-4.3125c-0.89754-0.4914-2.0506-0.4791-2.9375 0.031-2.247 1.2785-4.6292 2.3038-7.1562 3-0.98777 0.2692-1.8098 1.0789-2.0938 2.0625l-2.4062 8.5h-7.8125l-2.4062-8.5c-0.28399-0.9836-1.106-1.7933-2.0938-2.0625-2.527-0.6962-4.9093-1.7215-7.1562-3-0.88689-0.5104-2.04-0.5227-2.9375-0.031l-7.75 4.3125-5.5-5.4687 4.3125-7.75c0.5009-0.8923 0.5009-2.0453 0-2.9375-1.2784-2.247-2.3038-4.6605-3-7.1875-0.27843-0.9764-1.0861-1.7841-2.0625-2.0625l-8.5-2.4375v-7.7813l8.5-2.4062c0.98361-0.284 1.7933-1.106 2.0625-2.0938 0.6962-2.527 1.7216-4.9405 3-7.1875 0.5009-0.8922 0.5009-2.0452 0-2.9375l-4.3125-7.7187 5.5-5.5 7.75 4.3125c0.89754 0.49145 2.0506 0.47916 2.9375-0.0312 2.247-1.2784 4.6292-2.2726 7.1562-2.9688 0.995-0.27467 1.8191-1.0988 2.0938-2.0938zm3.9062 19c-12.115 0-22 9.8854-22 22 0 12.115 9.8853 22 22 22s22-9.8853 22-22c0-12.115-9.8853-22-22-22zm0 6c8.8721 0 16 7.128 16 16 0 8.872-7.1279 16-16 16s-16-7.128-16-16c0-8.872 7.1279-16 16-16z" color="#000000" fill="#000000" overflow="visible" style="text-indent:0;text-transform:none"/>
    </g>
    <g fill="none" stroke="#000000" stroke-linecap="round" stroke-linejoin="round" stroke-width="5.6444">
      <path d="m103.03-706.95v45.34l276.58 73.562"/>
      <path d="m335.26-706.95v45.34l67.733 45.34"/>
      <path d="m780.36-706.95v45.34l-276.58 73.562"/>
      <path d="m548.13-706.95v45.34l-67.733 45.34"/>
    </g>
    <text x="594.13379" y="-546.59723" fill="#000000" font-family="sans-serif" font-size="3.3867px" font-weight="bold" letter-spacing="0px" stroke-width=".28222px" word-spacing="0px" style="line-height:0%" xml:space="preserve"><tspan x="594.13379" y="-546.59723" font-family="sans-serif" font-size="17.639px" font-weight="bold" stroke-width=".28222px" text-align="center" text-anchor="middle" style="line-height:125%">GIT CLONE / FETCH</tspan></text>
    <path d="m103.03-706.95v45.34l276.58 73.562" fill="none" stroke="#000000" stroke-linecap="round" stroke-linejoin="round" stroke-width="5.6444"/>
    <g transform="matrix(.28222 0 0 -.28222 -2321.3 -684.04)" fill="none" stroke="#000000" stroke-linecap="round" stroke-linejoin="round" stroke-width="20">
      <path d="m8590.2-1016.8v160.65l980 260.65"/>
      <path d="m9413.1-1016.8v160.65l240 160.65"/>
      <path d="m10990-1016.8v160.65l-980 260.65"/>
      <path d="m10167-1016.8v160.65l-240 160.65"/>
    </g>
    <path d="m1011.4-706.95v304.13" fill="none" stroke="#000000" stroke-linecap="round" stroke-linejoin="round" stroke-width="5.6444"/>
    <g transform="translate(1.3208e-6 3.1348e-5)">
      <text x="101.5829" y="-273.22891" fill="#000000" font-family="sans-serif" font-size="3.3867px" font-weight="bold" letter-spacing="0px" stroke-width=".28222px" text-align="center" text-anchor="middle" word-spacing="0px" style="line-height:0%" xml:space="preserve"><tspan x="101.5829" y="-273.22891" font-family="sans-serif" font-size="15.522px" font-weight="bold" stroke-width=".28222px" text-align="center" text-anchor="middle" style="line-height:125%">Component A</tspan></text>
      <g transform="matrix(.28222 0 0 .28222 65.758 -374.6)">
        <path d="m251.17 116.59-111.77-111.77c-6.4323-6.4379-16.873-6.4379-23.314 0l-23.21 23.21 29.443 29.443c6.8424-2.3117 14.688-0.7612 20.142 4.6936 5.4801 5.4885 7.0194 13.401 4.6515 20.266l28.375 28.375c6.8649-2.3651 14.786-0.83423 20.269 4.6571 7.6626 7.6598 7.6626 20.075 0 27.74-7.6654 7.6654-20.081 7.6654-27.749 0-5.7638-5.7694-7.1879-14.235-4.2695-21.336l-26.462-26.462-3e-3 69.638c1.8679 0.92693 3.6319 2.16 5.188 3.7105 7.6626 7.6598 7.6626 20.075 0 27.746-7.6654 7.6626-20.086 7.6626-27.74 0-7.6626-7.671-7.6626-20.086 0-27.746 1.8932-1.8904 4.0841-3.3201 6.4211-4.2807v-70.286c-2.337-0.95502-4.5251-2.3763-6.4211-4.2807-5.8059-5.7975-7.202-14.317-4.2274-21.446l-29.021-29.027-76.64 76.634c-6.4407 6.4436-6.4407 16.884 0 23.322l111.77 111.77c6.4351 6.4379 16.873 6.4379 23.316 0l111.25-111.25c6.4379-6.4408 6.4379-16.887 0-23.325" fill="#de4c36"/>
      </g>
    </g>
    <g transform="translate(1.3208e-6 3.1348e-5)">
      <text x="335.08951" y="-273.22891" fill="#000000" font-family="sans-serif" font-size="3.3867px" font-weight="bold" letter-spacing="0px" stroke-width=".28222px" text-align="center" text-anchor="middle" word-spacing="0px" style="line-height:0%" xml:space="preserve"><tspan x="335.08951" y="-273.22891" font-family="sans-serif" font-size="15.522px" font-weight="bold" stroke-width=".28222px" text-align="center" text-anchor="middle" style="line-height:125%">Component B</tspan></text>
      <g transform="matrix(.28222 0 0 .28222 298.83 -374.6)">
        <path d="m251.17 116.59-111.77-111.77c-6.4323-6.4379-16.873-6.4379-23.314 0l-23.21 23.21 29.443 29.443c6.8424-2.3117 14.688-0.7612 20.142 4.6936 5.4801 5.4885 7.0194 13.401 4.6515 20.266l28.375 28.375c6.8649-2.3651 14.786-0.83423 20.269 4.6571 7.6626 7.6598 7.6626 20.075 0 27.74-7.6654 7.6654-20.081 7.6654-27.749 0-5.7638-5.7694-7.1879-14.235-4.2695-21.336l-26.462-26.462-3e-3 69.638c1.8679 0.92693 3.6319 2.16 5.188 3.7105 7.6626 7.6598 7.6626 20.075 0 27.746-7.6654 7.6626-20.086 7.6626-27.74 0-7.6626-7.671-7.6626-20.086 0-27.746 1.8932-1.8904 4.0841-3.3201 6.4211-4.2807v-70.286c-2.337-0.95502-4.5251-2.3763-6.4211-4.2807-5.8059-5.7975-7.202-14.317-4.2274-21.446l-29.021-29.027-76.64 76.634c-6.4407 6.4436-6.4407 16.884 0 23.322l111.77 111.77c6.4351 6.4379 16.873 6.4379 23.316 0l111.25-111.25c6.4379-6.4408 6.4379-16.887 0-23.325" fill="#de4c36"/>
      </g>
    </g>
    <g transform="translate(1.3208e-6 3.1348e-5)">
      <text x="547.49103" y="-273.22894" fill="#000000" font-family="sans-serif" font-size="3.3867px" font-weight="bold" letter-spacing="0px" stroke-width=".28222px" text-align="center" text-anchor="middle" word-spacing="0px" style="line-height:0%" xml:space="preserve"><tspan x="547.49103" y="-273.22894" font-family="sans-serif" font-size="15.522px" font-weight="bold" stroke-width=".28222px" text-align="center" text-anchor="middle" style="line-height:125%">Component C</tspan></text>
      <g transform="matrix(.28222 0 0 .28222 511.27 -374.6)">
        <path d="m251.17 116.59-111.77-111.77c-6.4323-6.4379-16.873-6.4379-23.314 0l-23.21 23.21 29.443 29.443c6.8424-2.3117 14.688-0.7612 20.142 4.6936 5.4801 5.4885 7.0194 13.401 4.6515 20.266l28.375 28.375c6.8649-2.3651 14.786-0.83423 20.269 4.6571 7.6626 7.6598 7.6626 20.075 0 27.74-7.6654 7.6654-20.081 7.6654-27.749 0-5.7638-5.7694-7.1879-14.235-4.2695-21.336l-26.462-26.462-3e-3 69.638c1.8679 0.92693 3.6319 2.16 5.188 3.7105 7.6626 7.6598 7.6626 20.075 0 27.746-7.6654 7.6626-20.086 7.6626-27.74 0-7.6626-7.671-7.6626-20.086 0-27.746 1.8932-1.8904 4.0841-3.3201 6.4211-4.2807v-70.286c-2.337-0.95502-4.5251-2.3763-6.4211-4.2807-5.8059-5.7975-7.202-14.317-4.2274-21.446l-29.021-29.027-76.64 76.634c-6.4407 6.4436-6.4407 16.884 0 23.322l111.77 111.77c6.4351 6.4379 16.873 6.4379 23.316 0l111.25-111.25c6.4379-6.4408 6.4379-16.887 0-23.325" fill="#de4c36"/>
      </g>
    </g>
    <g transform="translate(1.3208e-6 3.1348e-5)">
      <text x="1011.4454" y="-273.22891" fill="#000000" font-family="sans-serif" font-size="3.3867px" font-weight="bold" letter-spacing="0px" stroke-width=".28222px" text-align="center" text-anchor="middle" word-spacing="0px" style="line-height:0%" xml:space="preserve"><tspan x="1011.4454" y="-273.22891" font-family="sans-serif" font-size="15.522px" font-weight="bold" stroke-width=".28222px" text-align="center" text-anchor="middle" style="line-height:125%">Component D</tspan></text>
      <g transform="matrix(.28222 0 0 .28222 975.3 -374.6)">
        <path d="m251.17 116.59-111.77-111.77c-6.4323-6.4379-16.873-6.4379-23.314 0l-23.21 23.21 29.443 29.443c6.8424-2.3117 14.688-0.7612 20.142 4.6936 5.4801 5.4885 7.0194 13.401 4.6515 20.266l28.375 28.375c6.8649-2.3651 14.786-0.83423 20.269 4.6571 7.6626 7.6598 7.6626 20.075 0 27.74-7.6654 7.6654-20.081 7.6654-27.749 0-5.7638-5.7694-7.1879-14.235-4.2695-21.336l-26.462-26.462-3e-3 69.638c1.8679 0.92693 3.6319 2.16 5.188 3.7105 7.6626 7.6598 7.6626 20.075 0 27.746-7.6654 7.6626-20.086 7.6626-27.74 0-7.6626-7.671-7.6626-20.086 0-27.746 1.8932-1.8904 4.0841-3.3201 6.4211-4.2807v-70.286c-2.337-0.95502-4.5251-2.3763-6.4211-4.2807-5.8059-5.7975-7.202-14.317-4.2274-21.446l-29.021-29.027-76.64 76.634c-6.4407 6.4436-6.4407 16.884 0 23.322l111.77 111.77c6.4351 6.4379 16.873 6.4379 23.316 0l111.25-111.25c6.4379-6.4408 6.4379-16.887 0-23.325" fill="#de4c36"/>
      </g>
    </g>
    <g transform="translate(1.3208e-6 3.1348e-5)">
      <text x="779.42645" y="-273.22891" fill="#000000" font-family="sans-serif" font-size="3.3867px" font-weight="bold" letter-spacing="0px" stroke-width=".28222px" text-align="center" text-anchor="middle" word-spacing="0px" style="line-height:0%" xml:space="preserve"><tspan x="779.42645" y="-273.22891" font-family="sans-serif" font-size="15.522px" font-weight="bold" stroke-width=".28222px" text-align="center" text-anchor="middle" style="line-height:125%">Component D</tspan></text>
      <g transform="matrix(.28222 0 0 .28222 743.29 -374.6)">
        <path d="m251.17 116.59-111.77-111.77c-6.4323-6.4379-16.873-6.4379-23.314 0l-23.21 23.21 29.443 29.443c6.8424-2.3117 14.688-0.7612 20.142 4.6936 5.4801 5.4885 7.0194 13.401 4.6515 20.266l28.375 28.375c6.8649-2.3651 14.786-0.83423 20.269 4.6571 7.6626 7.6598 7.6626 20.075 0 27.74-7.6654 7.6654-20.081 7.6654-27.749 0-5.7638-5.7694-7.1879-14.235-4.2695-21.336l-26.462-26.462-3e-3 69.638c1.8679 0.92693 3.6319 2.16 5.188 3.7105 7.6626 7.6598 7.6626 20.075 0 27.746-7.6654 7.6626-20.086 7.6626-27.74 0-7.6626-7.671-7.6626-20.086 0-27.746 1.8932-1.8904 4.0841-3.3201 6.4211-4.2807v-70.286c-2.337-0.95502-4.5251-2.3763-6.4211-4.2807-5.8059-5.7975-7.202-14.317-4.2274-21.446l-29.021-29.027-76.64 76.634c-6.4407 6.4436-6.4407 16.884 0 23.322l111.77 111.77c6.4351 6.4379 16.873 6.4379 23.316 0l111.25-111.25c6.4379-6.4408 6.4379-16.887 0-23.325" fill="#de4c36"/>
      </g>
    </g>
  </g>
  <g class="build" transform="translate(6.6304 888.79)">
    <g transform="matrix(.28222 0 0 .28222 -2321.3 142.53)" fill="none" stroke="#000000" stroke-linecap="round" stroke-linejoin="round" stroke-width="20">
      <path d="m8590.2-1016.8v160.65l980 260.65"/>
      <path d="m9413.1-1016.8v160.65l240 160.65"/>
      <path d="m10990-1016.8v160.65l-980 260.65"/>
      <path d="m10167-1016.8v160.65l-240 160.65"/>
    </g>
    <text x="188.34483" y="23.045069" fill="#000000" font-family="sans-serif" font-size="3.3867px" font-weight="bold" letter-spacing="0px" stroke-width=".28222px" word-spacing="0px" style="line-height:0%" xml:space="preserve"><tspan x="188.34483" y="23.045069" font-family="sans-serif" font-size="17.639px" font-weight="bold" stroke-width=".28222px" text-align="center" text-anchor="middle" style="line-height:125%">GRAB FILES FROM FILTERED BRANCHES</tspan></text>
    <path d="m1011.4-144.44v45.34l-501.27 104.9" fill="none" stroke="#000000" stroke-linecap="round" stroke-linejoin="round" stroke-width="5.6444"/>
    <g transform="translate(-.82951)">
      <path d="m409.47-21.661h66.107l-26.492 41.596v21.788l-13.618 11.885v-33.673z" fill="none" stroke="#000000" stroke-linejoin="round" stroke-opacity=".97021" stroke-width="4.9519"/>
    </g>
    <g transform="matrix(.28222 0 0 .28222 -2326.6 -334.25)" stroke-miterlimit="10">
      <g stroke="#de4c36">
        <path class="st6" d="m8603.9 480.28-83.626 91.793v15.006" fill="none" stroke-width="9.375"/>
        <circle class="st6" transform="matrix(0,1,1,0,0,0)" cx="571.29" cy="8520.2" r="18.612" fill="#de4c36" stroke-width="3.5451"/>
        <path class="st6" d="m8605.8 305.82 83.626 91.793v15.006" fill="none" stroke-width="9.375"/>
        <circle class="st6" transform="rotate(90)" cx="396.83" cy="-8689.5" r="18.612" fill="#de4c36" stroke-width="3.5447"/>
      </g>
      <g fill="#808080" stroke="#808080">
        <path class="st6" d="m8605.8 305.82v266.45" stroke-width="9.375"/>
        <g stroke-width="3.5451">
          <circle class="st6" transform="rotate(90)" cx="304.43" cy="-8605.8" r="18.612"/>
          <circle class="st6" transform="rotate(90)" cx="392.53" cy="-8605.8" r="18.612"/>
          <circle class="st6" transform="rotate(90)" cx="481.15" cy="-8605.8" r="18.612"/>
          <circle class="st6" transform="rotate(90)" cx="569.78" cy="-8605.8" r="18.612"/>
        </g>
      </g>
    </g>
    <g transform="matrix(.28222 0 0 .28222 -2190.3 -337.02)" stroke-miterlimit="10">
      <path class="st6" d="m8949.2 486.32 83.626 91.793v15.006" fill="none" stroke="#de4c36" stroke-width="9.375"/>
      <circle class="st6" transform="rotate(90)" cx="577.33" cy="-9032.8" r="18.612" fill="#de4c36" stroke="#de4c36" stroke-width="3.5451"/>
      <path class="st6" d="m8948.6 315.61 83.626 91.793v15.006" fill="#808080" stroke="#808080" stroke-width="9.375"/>
      <circle class="st6" transform="rotate(90)" cx="406.62" cy="-9032.2" r="18.612" fill="#808080" stroke="#808080" stroke-width="3.5447"/>
      <g stroke="#de4c36">
        <path class="st6" d="m8948.6 315.61v266.45" fill="#ffffff" stroke-width="9.375"/>
        <circle class="st6" transform="rotate(90)" cx="314.22" cy="-8948.6" r="18.612" fill="#de4c36" stroke-width="3.5451"/>
        <path class="st6" d="m8946.6 400.07-83.626 91.793v15.006" fill="none" stroke-width="9.375"/>
      </g>
      <g fill="#de4c36" stroke="#de4c36" stroke-width="3.5451">
        <circle class="st6" transform="rotate(90)" cx="402.32" cy="-8948.6" r="18.612"/>
        <circle class="st6" transform="rotate(90)" cx="490.95" cy="-8948.6" r="18.612"/>
        <circle class="st6" transform="rotate(90)" cx="579.57" cy="-8948.6" r="18.612"/>
        <circle class="st6" transform="matrix(0,1,1,0,0,0)" cx="491.08" cy="8863" r="18.612"/>
      </g>
    </g>
    <g transform="matrix(.28222 0 0 .28222 -2251.7 -339.78)">
      <g fill="#de4c36" stroke="#de4c36" stroke-miterlimit="10">
        <path class="st6" d="m9918.2 325.4v266.45" stroke-width="9.375"/>
        <g stroke-width="3.5451">
          <circle class="st6" transform="rotate(90)" cx="324.02" cy="-9918.2" r="18.612"/>
          <circle class="st6" transform="rotate(90)" cx="412.11" cy="-9918.2" r="18.612"/>
          <circle class="st6" transform="rotate(90)" cx="500.74" cy="-9918.2" r="18.612"/>
          <circle class="st6" transform="rotate(90)" cx="589.37" cy="-9918.2" r="18.612"/>
        </g>
      </g>
    </g>
    <g transform="matrix(-.28222 0 0 .28222 4229.5 -336.09)" stroke-miterlimit="10">
      <path class="st6" d="m11402 486.81-83.626 91.793v15.006" fill="#de4c36" stroke="#de4c36" stroke-width="9.375"/>
      <circle class="st6" transform="matrix(0,1,1,0,0,0)" cx="577.82" cy="11318" r="18.612" fill="#de4c36" stroke="#de4c36" stroke-width="3.5451"/>
      <g fill="#808080" stroke="#808080">
        <g>
          <path class="st6" d="m11404 312.35 83.626 91.793v15.006" stroke-width="9.375"/>
          <circle class="st6" transform="rotate(90)" cx="403.36" cy="-11487" r="18.612" stroke-width="3.5447"/>
          <path class="st6" d="m11404 312.35v266.45" stroke-width="9.375"/>
        </g>
        <g stroke-width="3.5451">
          <circle class="st6" transform="rotate(90)" cx="310.96" cy="-11404" r="18.612"/>
          <circle class="st6" transform="rotate(90)" cx="399.05" cy="-11404" r="18.612"/>
          <circle class="st6" transform="rotate(90)" cx="487.68" cy="-11404" r="18.612"/>
          <circle class="st6" transform="rotate(90)" cx="576.31" cy="-11404" r="18.612"/>
        </g>
      </g>
    </g>
    <g transform="matrix(-.28222 0 0 .28222 3814.4 -337.94)" stroke-miterlimit="10">
      <path class="st6" d="m10757 318.88 83.625 91.793v15.006" fill="#de4c36" stroke="#de4c36" stroke-width="9.375"/>
      <circle class="st6" transform="rotate(90)" cx="409.89" cy="-10841" r="18.612" fill="#de4c36" stroke="#de4c36" stroke-width="3.5447"/>
      <g fill="#808080" stroke="#808080">
        <path class="st6" d="m10757 318.88v266.45" stroke-width="9.375"/>
        <g stroke-width="3.5451">
          <circle class="st6" transform="rotate(90)" cx="317.49" cy="-10757" r="18.612"/>
          <circle class="st6" transform="rotate(90)" cx="405.58" cy="-10757" r="18.612"/>
          <circle class="st6" transform="rotate(90)" cx="494.21" cy="-10757" r="18.612"/>
          <circle class="st6" transform="rotate(90)" cx="582.84" cy="-10757" r="18.612"/>
        </g>
      </g>
    </g>
  </g>
  <g class="build" transform="translate(6.6304 888.79)">
    <g transform="matrix(.28222 0 0 .28222 -2323.1 -339.54)">
      <g transform="translate(6171.6 -335.47)" stroke="#000000" stroke-linecap="round" stroke-linejoin="round" stroke-width="10">
        <path d="m3801.8 2249.5c-15.037 0-27.144 12.105-27.144 27.142v242.14c0 15.037 12.107 27.142 27.144 27.142h273.87c15.037 0 27.143-12.105 27.143-27.142v-212.5l-56.787-56.785z" fill="#ffffff"/>
        <path d="m4102.8 2307.2h-57.589v-57.589" fill="none"/>
      </g>
      <g transform="translate(6191.6 -315.47)" stroke="#000000" stroke-linecap="round" stroke-linejoin="round" stroke-width="10">
        <path d="m3801.8 2249.5c-15.037 0-27.144 12.105-27.144 27.142v242.14c0 15.037 12.107 27.142 27.144 27.142h273.87c15.037 0 27.143-12.105 27.143-27.142v-212.5l-56.787-56.785z" fill="#ffffff"/>
        <path d="m4102.8 2307.2h-57.589v-57.589" fill="none"/>
      </g>
      <g transform="translate(6211.6 -295.47)">
        <g stroke="#000000" stroke-linecap="round" stroke-linejoin="round" stroke-width="10">
          <path d="m3801.8 2249.5c-15.037 0-27.144 12.105-27.144 27.142v242.14c0 15.037 12.107 27.142 27.144 27.142h273.87c15.037 0 27.143-12.105 27.143-27.142v-212.5l-56.787-56.785z" fill="#ffffff"/>
          <path d="m4102.8 2307.2h-57.589v-57.589" fill="none"/>
        </g>
      </g>
      <text x="10161.585" y="2105.0413" fill="#000000" font-family="sans-serif" font-size="46.78px" font-weight="bold" letter-spacing="0px" stroke-width="1px" text-anchor="middle" word-spacing="0px" style="line-height:0%" xml:space="preserve"><tspan x="10161.585" y="2105.0413" text-align="center" style="line-height:125%">ASCIIDOC</tspan><tspan x="10161.585" y="2163.5164" text-align="center" style="line-height:125%">PAGES</tspan></text>
    </g>
    <g transform="matrix(.28222 0 0 .28222 -2323.1 -339.54)">
      <g transform="translate(5503.6 -335.47)" stroke="#000000" stroke-linecap="round" stroke-linejoin="round" stroke-width="10">
        <path d="m3801.8 2249.5c-15.037 0-27.144 12.105-27.144 27.142v242.14c0 15.037 12.107 27.142 27.144 27.142h273.87c15.037 0 27.143-12.105 27.143-27.142v-212.5l-56.787-56.785z" fill="#ffffff"/>
        <path d="m4102.8 2307.2h-57.589v-57.589" fill="none"/>
      </g>
      <g transform="translate(5523.6 -315.47)" stroke="#000000" stroke-linecap="round" stroke-linejoin="round" stroke-width="10">
        <path d="m3801.8 2249.5c-15.037 0-27.144 12.105-27.144 27.142v242.14c0 15.037 12.107 27.142 27.144 27.142h273.87c15.037 0 27.143-12.105 27.143-27.142v-212.5l-56.787-56.785z" fill="#ffffff"/>
        <path d="m4102.8 2307.2h-57.589v-57.589" fill="none"/>
      </g>
      <g transform="translate(5543.6 -1509.8)" stroke="#000000" stroke-linecap="round" stroke-linejoin="round" stroke-width="10">
        <path d="m3801.8 3463.8c-15.037 0-27.144 12.105-27.144 27.142v242.14c0 15.037 12.107 27.142 27.144 27.142h273.87c15.037 0 27.143-12.105 27.143-27.142v-212.5l-56.787-56.785z" fill="#ffffff"/>
        <path d="m4102.8 3521.4h-57.589v-57.589" fill="none"/>
      </g>
      <g transform="matrix(2.3326 0 0 2.3326 9365.7 -195.9)">
        <path transform="translate(0 952.36)" d="m7.8125 21a2.0002 2.0002 0 0 0 -1.8125 2v54a2.0002 2.0002 0 0 0 2 2h84a2.0002 2.0002 0 0 0 2 -2v-54a2.0002 2.0002 0 0 0 -2 -2h-84a2.0002 2.0002 0 0 0 -0.1875 0zm2.1875 4h80v33.906l-14.781-11.5c-0.41916-0.32764-0.97279-0.47758-1.5-0.40625-0.21671 0.02781-0.42878 0.09143-0.625 0.1875l-18.719 9.375-14.969-14.969a2.0002 2.0002 0 0 0 -1.625 -0.59375 2.0002 2.0002 0 0 0 -0.84375 0.3125l-26.938 17.031zm47 5c-4.9469 0-9 4.0531-9 9s4.0531 9 9 9 9-4.0531 9-9-4.0531-9-9-9zm0 4c2.7851 0 5 2.2149 5 5s-2.2149 5-5 5-5-2.2149-5-5 2.2149-5 5-5zm-19.281 11.531 29.469 29.469h-57.188v-11.906zm36.062 5.8125l16.219 12.625v11.031h-17.188l-15.438-15.438z" color="#000000" fill="#000000" style="text-decoration-line:none;text-indent:0;text-transform:none"/>
      </g>
      <text x="9409.6924" y="2046.9961" fill="#000000" font-family="Arial" font-weight="bold" letter-spacing="0px" stroke-width="1px" word-spacing="0px" style="line-height:0%" xml:space="preserve"><tspan x="9409.6924" y="2046.9961" font-family="sans-serif" font-size="36.659px" font-weight="bold" style="line-height:125%">ASSETS</tspan></text>
    </g>
    <g>
      <path d="m535.95 165.43v-45.34l-50.8-56.629" fill="none" stroke="#000000" stroke-linecap="round" stroke-linejoin="round" stroke-width="5.6444"/>
      <path d="m347.44 165.43v-45.34l50.8-56.629" fill="none" stroke="#000000" stroke-linecap="round" stroke-linejoin="round" stroke-width="5.6444"/>
      <text x="568.8371" y="64.171959" fill="#000000" font-family="sans-serif" font-size="3.3867px" letter-spacing="0px" stroke-width=".28222px" word-spacing="0px" style="line-height:0%" xml:space="preserve"><tspan x="568.8371" y="64.171959" font-size="11.289px" stroke-width=".28222px" style="line-height:1.25"> </tspan></text>
    </g>
  </g>
</svg>
